<svg width="21" height="20" viewBox="0 0 21 20" fill="none" xmlns="http://www.w3.org/2000/svg">
<g clip-path="url(#clip0_23_1052)">
<path d="M5.83476 9.1665L9.16809 1.6665C9.83113 1.6665 10.467 1.9299 10.9359 2.39874C11.4047 2.86758 11.6681 3.50346 11.6681 4.1665V7.49984H16.3848C16.6263 7.4971 16.8656 7.54692 17.0861 7.64585C17.3065 7.74478 17.5028 7.89045 17.6613 8.07277C17.8198 8.25508 17.9368 8.46969 18.0042 8.70171C18.0716 8.93374 18.0877 9.17763 18.0514 9.4165L16.9014 16.9165C16.8412 17.3139 16.6393 17.6762 16.333 17.9365C16.0267 18.1968 15.6367 18.3377 15.2348 18.3332H5.83476M5.83476 9.1665V18.3332M5.83476 9.1665H3.33476C2.89273 9.1665 2.46881 9.3421 2.15625 9.65466C1.84369 9.96722 1.66809 10.3911 1.66809 10.8332V16.6665C1.66809 17.1085 1.84369 17.5325 2.15625 17.845C2.46881 18.1576 2.89273 18.3332 3.33476 18.3332H5.83476" stroke="#FF7117" stroke-width="2" stroke-linecap="round" stroke-linejoin="round"/>
</g>
<defs>
<clipPath id="clip0_23_1052">
<rect width="20" height="20" fill="white" transform="translate(0.00146484)"/>
</clipPath>
</defs>
</svg>
