<svg width="169" height="44" viewBox="0 0 169 44" fill="none" xmlns="http://www.w3.org/2000/svg">
<path d="M21.352 34.81C19.516 35.796 17.306 36.578 14.382 36.578C7.344 36.578 1.326 31.308 1.326 23.318C1.326 15.328 7.344 10.058 14.382 10.058C17.306 10.058 19.55 10.84 21.352 11.792V17.3C19.312 15.94 17.476 15.192 14.96 15.192C10.642 15.192 6.936 18.388 6.936 23.318C6.936 28.214 10.642 31.478 14.96 31.478C17.476 31.478 19.312 30.628 21.352 29.234V34.81ZM25.1558 36V8.698H30.5958V36H25.1558ZM42.4931 36.476C38.2431 36.476 34.1291 32.532 34.1291 26.65C34.1291 20.632 38.2431 16.688 42.4931 16.688C45.3151 16.688 47.4231 18.116 48.6471 20.054H48.6811L49.2251 17.164H53.8151V36H49.2251L48.6811 33.11H48.6471C47.4231 35.082 45.3151 36.476 42.4931 36.476ZM39.6031 26.582C39.6031 29.472 41.5071 31.58 44.0911 31.58C46.6071 31.58 48.4771 29.506 48.4771 26.582C48.4771 23.658 46.6071 21.584 44.0911 21.584C41.5071 21.584 39.6031 23.726 39.6031 26.582ZM65.3289 16.688C67.5389 16.688 69.8169 17.232 71.2789 18.15V22.774C69.9529 21.856 67.6749 21.108 65.5329 21.108C63.8329 21.108 62.8809 21.686 62.8809 22.604C62.8809 23.624 63.9689 24.032 66.1109 24.61C69.2049 25.358 72.5029 26.412 72.5029 30.39C72.5029 34.096 69.5789 36.476 64.4789 36.476C61.7589 36.476 59.4129 35.796 57.7469 34.708V29.71C59.3449 31.002 61.4869 32.056 64.2409 32.056C66.1449 32.056 67.2329 31.444 67.2329 30.424C67.2329 29.268 65.8729 28.894 63.4249 28.214C60.4329 27.364 57.6449 26.14 57.6449 22.706C57.6449 19.238 60.4669 16.688 65.3289 16.688ZM82.9929 16.688C85.2029 16.688 87.4809 17.232 88.9429 18.15V22.774C87.6169 21.856 85.3389 21.108 83.1969 21.108C81.4969 21.108 80.5449 21.686 80.5449 22.604C80.5449 23.624 81.6329 24.032 83.7749 24.61C86.8689 25.358 90.1669 26.412 90.1669 30.39C90.1669 34.096 87.2429 36.476 82.1429 36.476C79.4229 36.476 77.0769 35.796 75.4109 34.708V29.71C77.0089 31.002 79.1509 32.056 81.9049 32.056C83.8089 32.056 84.8969 31.444 84.8969 30.424C84.8969 29.268 83.5369 28.894 81.0889 28.214C78.0969 27.364 75.3089 26.14 75.3089 22.706C75.3089 19.238 78.1309 16.688 82.9929 16.688ZM94.129 36V10.636H99.671V30.968H110.177V36H94.129ZM113.177 36V17.164H118.617V36H113.177ZM112.905 11.622C112.905 9.99 114.197 8.698 115.897 8.698C117.529 8.698 118.855 9.99 118.855 11.622C118.855 13.288 117.529 14.58 115.897 14.58C114.197 14.58 112.905 13.288 112.905 11.622ZM133.711 16.688C137.791 16.688 140.307 19.204 140.307 23.42V36H134.867V24.984C134.867 22.672 133.847 21.618 131.875 21.618C129.937 21.618 128.611 22.978 128.611 24.848V36H123.171V17.164H127.387L127.931 19.816H128.033C129.155 18.048 131.127 16.688 133.711 16.688ZM163.386 17.164L156.042 26.14L163.624 36H156.96L150.126 26.888V36H144.686V8.698H150.126V25.766L156.96 17.164H163.386Z" fill="white"/>
<path d="M23.2461 35.9833L23.7274 36.8599L24.2461 36.5751V35.9833H23.2461ZM23.2461 12.9993H24.2461V12.4076L23.7274 12.1228L23.2461 12.9993ZM23.2461 17.7933L22.6947 18.6276L24.2461 19.6531V17.7933H23.2461ZM23.2461 31.1213H24.2461V29.2616L22.6947 30.2871L23.2461 31.1213ZM22.7648 35.1068C21.1541 35.9911 19.1083 36.7173 16.3781 36.7173V38.7173C19.4959 38.7173 21.8701 37.8796 23.7274 36.8599L22.7648 35.1068ZM16.3781 36.7173C10.0382 36.7173 4.49209 31.9392 4.49209 24.4913H2.49209C2.49209 33.0915 8.982 38.7173 16.3781 38.7173V36.7173ZM4.49209 24.4913C4.49209 17.0435 10.0382 12.2653 16.3781 12.2653V10.2653C8.982 10.2653 2.49209 15.8912 2.49209 24.4913H4.49209ZM16.3781 12.2653C19.1083 12.2653 21.1541 12.9916 22.7648 13.8759L23.7274 12.1228C21.8701 11.1031 19.4959 10.2653 16.3781 10.2653V12.2653ZM22.2461 12.9993V17.7933H24.2461V12.9993H22.2461ZM23.7975 16.9591C21.6721 15.5541 19.6131 14.7193 16.8201 14.7193V16.7193C19.1271 16.7193 20.8081 17.3805 22.6947 18.6276L23.7975 16.9591ZM16.8201 14.7193C11.84 14.7193 7.35409 18.5072 7.35409 24.4913H9.35409C9.35409 19.6635 12.8922 16.7193 16.8201 16.7193V14.7193ZM7.35409 24.4913C7.35409 30.4337 11.8321 34.2973 16.8201 34.2973V32.2973C12.9001 32.2973 9.35409 29.293 9.35409 24.4913H7.35409ZM16.8201 34.2973C19.6388 34.2973 21.7014 33.3411 23.7975 31.9556L22.6947 30.2871C20.7788 31.5535 19.1014 32.2973 16.8201 32.2973V34.2973ZM22.2461 31.1213V35.9833H24.2461V31.1213H22.2461ZM27.3226 37.1733H26.3226V38.1733H27.3226V37.1733ZM27.3226 9.90534V8.90534H26.3226V9.90534H27.3226ZM32.0146 9.90534H33.0146V8.90534H32.0146V9.90534ZM32.0146 37.1733V38.1733H33.0146V37.1733H32.0146ZM28.3226 37.1733V9.90534H26.3226V37.1733H28.3226ZM27.3226 10.9053H32.0146V8.90534H27.3226V10.9053ZM31.0146 9.90534V37.1733H33.0146V9.90534H31.0146ZM32.0146 36.1733H27.3226V38.1733H32.0146V36.1733ZM50.55 21.5333L49.6937 22.0498L49.9853 22.5333H50.55V21.5333ZM50.584 21.5333V22.5333H51.4404L51.5721 21.687L50.584 21.5333ZM51.06 18.4733V17.4733H50.2035L50.0718 18.3196L51.06 18.4733ZM55.004 18.4733H56.004V17.4733H55.004V18.4733ZM55.004 37.1733V38.1733H56.004V37.1733H55.004ZM51.06 37.1733L50.0718 37.327L50.2035 38.1733H51.06V37.1733ZM50.584 34.1133L51.5721 33.9596L51.4404 33.1133H50.584V34.1133ZM50.55 34.1133V33.1133H49.9853L49.6937 33.5968L50.55 34.1133ZM44.26 36.6493C40.6482 36.6493 36.896 33.2772 36.896 27.8573H34.896C34.896 34.2015 39.3717 38.6493 44.26 38.6493V36.6493ZM36.896 27.8573C36.896 22.3695 40.6482 19.0313 44.26 19.0313V17.0313C39.3717 17.0313 34.896 21.4452 34.896 27.8573H36.896ZM44.26 19.0313C46.6577 19.0313 48.5796 20.2029 49.6937 22.0498L51.4062 21.0168C49.9363 18.5798 47.3702 17.0313 44.26 17.0313V19.0313ZM50.55 22.5333H50.584V20.5333H50.55V22.5333ZM51.5721 21.687L52.0481 18.627L50.0718 18.3196L49.5958 21.3796L51.5721 21.687ZM51.06 19.4733H55.004V17.4733H51.06V19.4733ZM54.004 18.4733V37.1733H56.004V18.4733H54.004ZM55.004 36.1733H51.06V38.1733H55.004V36.1733ZM52.0481 37.0196L51.5721 33.9596L49.5958 34.267L50.0718 37.327L52.0481 37.0196ZM50.584 33.1133H50.55V35.1133H50.584V33.1133ZM49.6937 33.5968C48.5748 35.4518 46.6486 36.6493 44.26 36.6493V38.6493C47.3793 38.6493 49.9411 37.0589 51.4062 34.6298L49.6937 33.5968ZM39.622 27.8233C39.622 31.4996 42.0773 34.3653 45.552 34.3653V32.3653C43.3826 32.3653 41.622 30.607 41.622 27.8233H39.622ZM45.552 34.3653C48.9719 34.3653 51.38 31.5186 51.38 27.8233H49.38C49.38 30.6561 47.64 32.3653 45.552 32.3653V34.3653ZM51.38 27.8233C51.38 24.1281 48.9719 21.2813 45.552 21.2813V23.2813C47.64 23.2813 49.38 24.9906 49.38 27.8233H51.38ZM45.552 21.2813C42.0773 21.2813 39.622 24.147 39.622 27.8233H41.622C41.622 25.0396 43.3826 23.2813 45.552 23.2813V21.2813ZM72.3373 19.5273H73.3373V18.9885L72.8873 18.6922L72.3373 19.5273ZM72.3373 23.6413L71.7406 24.4438L73.3373 25.6311V23.6413H72.3373ZM67.2373 26.0213L66.9779 26.9871L66.9844 26.9888L67.2373 26.0213ZM59.2473 35.7453H58.2473V36.26L58.6661 36.5591L59.2473 35.7453ZM59.2473 31.2913L59.9117 30.5439L58.2473 29.0645V31.2913H59.2473ZM64.9593 29.2173L65.2443 28.2588L65.237 28.2566L65.2297 28.2546L64.9593 29.2173ZM66.5233 19.0313C68.562 19.0313 70.5992 19.5801 71.7873 20.3625L72.8873 18.6922C71.2874 17.6386 68.8366 17.0313 66.5233 17.0313V19.0313ZM71.3373 19.5273V23.6413H73.3373V19.5273H71.3373ZM72.934 22.8389C71.4218 21.7144 69.0326 20.9073 66.6933 20.9073V22.9073C68.638 22.9073 70.6008 23.5962 71.7406 24.4438L72.934 22.8389ZM66.6933 20.9073C65.6375 20.9073 64.6856 21.1019 63.9639 21.5606C63.1963 22.0485 62.7353 22.8143 62.7353 23.7433H64.7353C64.7353 23.5504 64.8013 23.3982 65.0367 23.2485C65.318 23.0698 65.8451 22.9073 66.6933 22.9073V20.9073ZM62.7353 23.7433C62.7353 24.2264 62.864 24.6778 63.1347 25.0768C63.3955 25.4611 63.7519 25.7436 64.1286 25.9631C64.8526 26.385 65.8574 26.6861 66.9779 26.9871L67.4968 25.0556C66.3392 24.7446 65.593 24.5017 65.1355 24.2351C64.9214 24.1103 64.8295 24.0125 64.7896 23.9537C64.7597 23.9096 64.7353 23.8553 64.7353 23.7433H62.7353ZM66.9844 26.9888C68.4991 27.3847 69.8906 27.7994 70.9119 28.5179C71.8563 29.1824 72.4933 30.1112 72.4933 31.6993H74.4933C74.4933 29.4115 73.4983 27.8923 72.0627 26.8822C70.7041 25.9263 68.9675 25.44 67.4902 25.0538L66.9844 26.9888ZM72.4933 31.6993C72.4933 33.2151 71.9127 34.4063 70.8578 35.242C69.777 36.0982 68.1078 36.6493 65.8433 36.6493V38.6493C68.4069 38.6493 70.5626 38.0275 72.0998 36.8097C73.6629 35.5714 74.4933 33.7875 74.4933 31.6993H72.4933ZM65.8433 36.6493C63.3985 36.6493 61.2983 35.9815 59.8286 34.9316L58.6661 36.5591C60.5283 37.8892 63.0522 38.6493 65.8433 38.6493V36.6493ZM60.2473 35.7453V31.2913H58.2473V35.7453H60.2473ZM58.5829 32.0387C60.2633 33.5324 62.634 34.7393 65.6393 34.7393V32.7393C63.2047 32.7393 61.2913 31.7702 59.9117 30.5439L58.5829 32.0387ZM65.6393 34.7393C66.796 34.7393 67.8285 34.5281 68.6065 34.0448C69.4286 33.5341 69.9373 32.7279 69.9373 31.7333H67.9373C67.9373 31.9628 67.8511 32.1596 67.5511 32.3459C67.2072 32.5596 66.5906 32.7393 65.6393 32.7393V34.7393ZM69.9373 31.7333C69.9373 31.1998 69.7842 30.7134 69.4749 30.2932C69.1802 29.8928 68.7819 29.6043 68.3695 29.3801C67.5755 28.9483 66.4599 28.6202 65.2443 28.2588L64.6743 30.1759C65.9747 30.5625 66.8482 30.8294 67.4141 31.1371C67.6818 31.2827 67.8062 31.4 67.8642 31.4788C67.9076 31.5378 67.9373 31.6039 67.9373 31.7333H69.9373ZM65.2297 28.2546C63.7233 27.8314 62.4438 27.3703 61.5421 26.6806C60.7043 26.0396 60.1793 25.1944 60.1793 23.8453H58.1793C58.1793 25.8623 59.0314 27.278 60.327 28.2691C61.5588 29.2114 63.1693 29.7532 64.6889 30.1801L65.2297 28.2546ZM60.1793 23.8453C60.1793 22.4568 60.7374 21.2894 61.7633 20.45C62.8053 19.5975 64.3989 19.0313 66.5233 19.0313V17.0313C64.0577 17.0313 61.9794 17.6891 60.4968 18.9021C58.9983 20.1282 58.1793 21.8678 58.1793 23.8453H60.1793ZM89.7025 19.5273H90.7025V18.9885L90.2525 18.6922L89.7025 19.5273ZM89.7025 23.6413L89.1058 24.4438L90.7025 25.6311V23.6413H89.7025ZM84.6025 26.0213L84.3431 26.9871L84.3497 26.9888L84.6025 26.0213ZM76.6125 35.7453H75.6125V36.26L76.0313 36.5591L76.6125 35.7453ZM76.6125 31.2913L77.2769 30.5439L75.6125 29.0645V31.2913H76.6125ZM82.3245 29.2173L82.6095 28.2588L82.6023 28.2566L82.595 28.2546L82.3245 29.2173ZM83.8885 19.0313C85.9273 19.0313 87.9645 19.5801 89.1526 20.3625L90.2525 18.6922C88.6526 17.6386 86.2018 17.0313 83.8885 17.0313V19.0313ZM88.7025 19.5273V23.6413H90.7025V19.5273H88.7025ZM90.2993 22.8389C88.7871 21.7144 86.3978 20.9073 84.0585 20.9073V22.9073C86.0033 22.9073 87.966 23.5962 89.1058 24.4438L90.2993 22.8389ZM84.0585 20.9073C83.0028 20.9073 82.0508 21.1019 81.3291 21.5606C80.5615 22.0485 80.1005 22.8143 80.1005 23.7433H82.1005C82.1005 23.5504 82.1666 23.3982 82.402 23.2485C82.6833 23.0698 83.2103 22.9073 84.0585 22.9073V20.9073ZM80.1005 23.7433C80.1005 24.2264 80.2292 24.6778 80.4999 25.0768C80.7607 25.4611 81.1172 25.7436 81.4938 25.9631C82.2178 26.385 83.2226 26.6861 84.3431 26.9871L84.862 25.0556C83.7045 24.7446 82.9582 24.5017 82.5008 24.2351C82.2867 24.1103 82.1947 24.0125 82.1548 23.9537C82.1249 23.9096 82.1005 23.8553 82.1005 23.7433H80.1005ZM84.3497 26.9888C85.8644 27.3847 87.2558 27.7994 88.2771 28.5179C89.2215 29.1824 89.8585 30.1112 89.8585 31.6993H91.8585C91.8585 29.4115 90.8636 27.8923 89.428 26.8822C88.0693 25.9263 86.3327 25.44 84.8554 25.0538L84.3497 26.9888ZM89.8585 31.6993C89.8585 33.2151 89.278 34.4063 88.2231 35.242C87.1423 36.0982 85.473 36.6493 83.2085 36.6493V38.6493C85.7721 38.6493 87.9278 38.0275 89.465 36.8097C91.0281 35.5714 91.8585 33.7875 91.8585 31.6993H89.8585ZM83.2085 36.6493C80.7637 36.6493 78.6636 35.9815 77.1938 34.9316L76.0313 36.5591C77.8935 37.8892 80.4174 38.6493 83.2085 38.6493V36.6493ZM77.6125 35.7453V31.2913H75.6125V35.7453H77.6125ZM75.9482 32.0387C77.6286 33.5324 79.9992 34.7393 83.0045 34.7393V32.7393C80.5699 32.7393 78.6565 31.7702 77.2769 30.5439L75.9482 32.0387ZM83.0045 34.7393C84.1612 34.7393 85.1937 34.5281 85.9717 34.0448C86.7938 33.5341 87.3025 32.7279 87.3025 31.7333H85.3025C85.3025 31.9628 85.2163 32.1596 84.9164 32.3459C84.5724 32.5596 83.9558 32.7393 83.0045 32.7393V34.7393ZM87.3025 31.7333C87.3025 31.1998 87.1495 30.7134 86.8401 30.2932C86.5454 29.8928 86.1471 29.6043 85.7347 29.3801C84.9407 28.9483 83.8251 28.6202 82.6095 28.2588L82.0396 30.1759C83.34 30.5625 84.2134 30.8294 84.7794 31.1371C85.047 31.2827 85.1715 31.4 85.2295 31.4788C85.2729 31.5378 85.3025 31.6039 85.3025 31.7333H87.3025ZM82.595 28.2546C81.0886 27.8314 79.809 27.3703 78.9074 26.6806C78.0695 26.0396 77.5445 25.1944 77.5445 23.8453H75.5445C75.5445 25.8623 76.3966 27.278 77.6922 28.2691C78.9241 29.2114 80.5345 29.7532 82.0541 30.1801L82.595 28.2546ZM77.5445 23.8453C77.5445 22.4568 78.1026 21.2894 79.1285 20.45C80.1705 19.5975 81.7642 19.0313 83.8885 19.0313V17.0313C81.4229 17.0313 79.3446 17.6891 77.8621 18.9021C76.3635 20.1282 75.5445 21.8678 75.5445 23.8453H77.5445ZM95.1678 37.1733H94.1678V38.1733H95.1678V37.1733ZM95.1678 11.8433V10.8433H94.1678V11.8433H95.1678ZM99.9278 11.8433H100.928V10.8433H99.9278V11.8433ZM99.9278 32.7873H98.9278V33.7873H99.9278V32.7873ZM110.638 32.7873H111.638V31.7873H110.638V32.7873ZM110.638 37.1733V38.1733H111.638V37.1733H110.638ZM96.1678 37.1733V11.8433H94.1678V37.1733H96.1678ZM95.1678 12.8433H99.9278V10.8433H95.1678V12.8433ZM98.9278 11.8433V32.7873H100.928V11.8433H98.9278ZM99.9278 33.7873H110.638V31.7873H99.9278V33.7873ZM109.638 32.7873V37.1733H111.638V32.7873H109.638ZM110.638 36.1733H95.1678V38.1733H110.638V36.1733ZM113.916 37.1733H112.916V38.1733H113.916V37.1733ZM113.916 18.4733V17.4733H112.916V18.4733H113.916ZM118.608 18.4733H119.608V17.4733H118.608V18.4733ZM118.608 37.1733V38.1733H119.608V37.1733H118.608ZM114.916 37.1733V18.4733H112.916V37.1733H114.916ZM113.916 19.4733H118.608V17.4733H113.916V19.4733ZM117.608 18.4733V37.1733H119.608V18.4733H117.608ZM118.608 36.1733H113.916V38.1733H118.608V36.1733ZM114.61 12.7613C114.61 11.8601 115.31 11.1433 116.262 11.1433V9.14334C114.223 9.14334 112.61 10.7386 112.61 12.7613H114.61ZM116.262 11.1433C117.172 11.1433 117.88 11.8516 117.88 12.7613H119.88C119.88 10.7471 118.277 9.14334 116.262 9.14334V11.1433ZM117.88 12.7613C117.88 13.654 117.189 14.3453 116.262 14.3453V16.3453C118.259 16.3453 119.88 14.7927 119.88 12.7613H117.88ZM116.262 14.3453C115.293 14.3453 114.61 13.6456 114.61 12.7613H112.61C112.61 14.801 114.24 16.3453 116.262 16.3453V14.3453ZM140.034 37.1733V38.1733H141.034V37.1733H140.034ZM135.342 37.1733H134.342V38.1733H135.342V37.1733ZM128.236 37.1733V38.1733H129.236V37.1733H128.236ZM123.544 37.1733H122.544V38.1733H123.544V37.1733ZM123.544 18.4733V17.4733H122.544V18.4733H123.544ZM127.182 18.4733L128.164 18.2868L128.01 17.4733H127.182V18.4733ZM127.692 21.1593L126.709 21.3459L126.864 22.1593H127.692V21.1593ZM127.794 21.1593V22.1593H128.347L128.641 21.6908L127.794 21.1593ZM133.438 19.0313C135.266 19.0313 136.639 19.5983 137.555 20.5237C138.471 21.4506 139.034 22.8433 139.034 24.6953H141.034C141.034 22.4334 140.338 20.4941 138.977 19.1174C137.614 17.7394 135.689 17.0313 133.438 17.0313V19.0313ZM139.034 24.6953V37.1733H141.034V24.6953H139.034ZM140.034 36.1733H135.342V38.1733H140.034V36.1733ZM136.342 37.1733V26.1233H134.342V37.1733H136.342ZM136.342 26.1233C136.342 24.7032 136.026 23.4649 135.225 22.5792C134.405 21.6741 133.242 21.3153 131.942 21.3153V23.3153C132.886 23.3153 133.422 23.5686 133.742 23.9215C134.079 24.2938 134.342 24.9595 134.342 26.1233H136.342ZM131.942 21.3153C129.26 21.3153 127.236 23.2808 127.236 25.9873H129.236C129.236 24.4098 130.34 23.3153 131.942 23.3153V21.3153ZM127.236 25.9873V37.1733H129.236V25.9873H127.236ZM128.236 36.1733H123.544V38.1733H128.236V36.1733ZM124.544 37.1733V18.4733H122.544V37.1733H124.544ZM123.544 19.4733H127.182V17.4733H123.544V19.4733ZM126.199 18.6599L126.709 21.3459L128.674 20.9728L128.164 18.2868L126.199 18.6599ZM127.692 22.1593H127.794V20.1593H127.692V22.1593ZM128.641 21.6908C129.571 20.2078 131.243 19.0313 133.438 19.0313V17.0313C130.464 17.0313 128.192 18.6429 126.947 20.6278L128.641 21.6908ZM162.373 18.4733L163.128 19.1282L164.562 17.4733H162.373V18.4733ZM154.655 27.3813L153.899 26.7265L153.349 27.3607L153.878 28.0119L154.655 27.3813ZM162.611 37.1733V38.1733H164.711L163.387 36.5427L162.611 37.1733ZM156.797 37.1733L156.015 37.7966L156.315 38.1733H156.797V37.1733ZM149.453 27.9593L150.234 27.3361L148.453 25.1003V27.9593H149.453ZM149.453 37.1733V38.1733H150.453V37.1733H149.453ZM144.761 37.1733H143.761V38.1733H144.761V37.1733ZM144.761 9.90534V8.90534H143.761V9.90534H144.761ZM149.453 9.90534H150.453V8.90534H149.453V9.90534ZM149.453 27.1093H148.453V29.8483L150.217 27.7537L149.453 27.1093ZM156.729 18.4733V17.4733H156.263L155.964 17.829L156.729 18.4733ZM161.617 17.8185L153.899 26.7265L155.41 28.0362L163.128 19.1282L161.617 17.8185ZM153.878 28.0119L161.834 37.8039L163.387 36.5427L155.431 26.7507L153.878 28.0119ZM162.611 36.1733H156.797V38.1733H162.611V36.1733ZM157.578 36.5501L150.234 27.3361L148.671 28.5826L156.015 37.7966L157.578 36.5501ZM148.453 27.9593V37.1733H150.453V27.9593H148.453ZM149.453 36.1733H144.761V38.1733H149.453V36.1733ZM145.761 37.1733V9.90534H143.761V37.1733H145.761ZM144.761 10.9053H149.453V8.90534H144.761V10.9053ZM148.453 9.90534V27.1093H150.453V9.90534H148.453ZM150.217 27.7537L157.493 19.1177L155.964 17.829L148.688 26.465L150.217 27.7537ZM156.729 19.4733H162.373V17.4733H156.729V19.4733Z" fill="white"/>
</svg>
